<svg width="200" height="200" viewBox="0 0 200 200" fill="none" xmlns="http://www.w3.org/2000/svg">
<path d="M37.5 143.75V200H18.75C8.39466 200 0 191.605 0 181.25V143.75H37.5ZM150 56.25H125V68.75H200V131.25H175V143.75H200V181.25C200 191.605 191.605 200 181.25 200H50V143.75H75V131.25H0V68.75H25V56.25H0V18.75C0 8.39466 8.39466 0 18.75 0H150V56.25ZM132.855 91.1743L125.775 91.8091C124.739 91.9025 123.937 92.6634 123.694 93.8049L122.321 101.599C122.14 102.477 121.67 103.037 120.917 103.363C117.401 104.887 114.372 106.973 111.908 109.521C111.351 110.089 110.682 110.404 109.882 110.217L102.545 108.984C101.572 108.813 100.493 109.431 100.061 110.419L97.1741 116.882C96.743 117.869 96.9427 119.058 97.7905 119.757L103.845 125.073C104.419 125.625 104.654 126.292 104.639 127.069C104.6 128.537 104.65 129.998 104.791 131.537L104.962 133.417C105.104 134.955 105.328 136.404 105.634 137.842C105.79 138.602 105.675 139.303 105.212 139.948L100.226 146.252C99.5192 147.092 99.5419 148.3 100.146 149.194L104.163 155.035C104.767 155.929 105.94 156.341 106.866 156L113.861 153.473C114.613 153.148 115.328 153.339 115.979 153.796C118.868 155.863 122.228 157.37 125.964 158.24C126.765 158.427 127.33 158.898 127.667 159.729L130.438 167.145C130.886 168.225 131.812 168.831 132.849 168.738L139.929 168.103C140.965 168.009 141.767 167.248 142.01 166.107L143.378 158.313C143.558 157.435 144.034 156.876 144.788 156.549C148.304 155.026 151.332 152.94 153.796 150.391C154.354 149.824 155.023 149.503 155.823 149.689L163.159 150.928C164.132 151.098 165.212 150.48 165.643 149.493L168.53 143.03C168.961 142.043 168.761 140.854 167.914 140.155L161.853 134.839C161.281 134.288 161.044 133.619 161.06 132.843C161.098 131.374 161.054 129.914 160.913 128.375L160.742 126.495C160.601 124.957 160.376 123.513 160.071 122.076C159.914 121.316 160.024 120.615 160.486 119.971L165.479 113.66C166.185 112.82 166.162 111.611 165.558 110.718L161.536 104.877C160.931 103.984 159.763 103.57 158.838 103.912L151.843 106.439C151.091 106.765 150.376 106.573 149.725 106.116C146.837 104.049 143.476 102.542 139.74 101.672C138.939 101.486 138.375 101.015 138.037 100.183L135.266 92.7673C134.819 91.6872 133.892 91.081 132.855 91.1743ZM131.628 116.62C139.225 115.937 144.995 120.933 145.679 128.369L145.758 129.224C146.442 136.66 141.674 142.608 134.076 143.292C126.479 143.976 120.709 138.979 120.026 131.543L119.946 130.688C119.263 123.251 124.03 117.304 131.628 116.62ZM72.0642 31.25C70.9076 31.25 69.9408 32.0121 69.5557 33.252L67.2485 41.7419C66.9591 42.6955 66.376 43.269 65.509 43.5547C61.4645 44.89 57.8989 46.889 54.9133 49.4629C54.2395 50.0345 53.4719 50.3217 52.6062 50.0366L44.6106 47.937C43.5513 47.6507 42.2956 48.2247 41.7175 49.2737L37.8662 56.1401C37.2885 57.1887 37.3844 58.5225 38.2507 59.3811L44.4153 65.8691C44.9935 66.5367 45.1831 67.2996 45.0867 68.158C44.8945 69.7779 44.7999 71.3982 44.7998 73.114V75.2136C44.7998 76.9302 44.8944 78.5541 45.0867 80.1758C45.1827 81.0332 44.9936 81.7973 44.4153 82.4646L38.2507 88.9465C37.3835 89.8051 37.2883 91.1441 37.8662 92.1936L41.7175 99.054C42.2955 100.103 43.551 100.676 44.6106 100.391L52.6062 98.291C53.4707 98.0073 54.2402 98.2943 54.9133 98.8647C57.8991 101.439 61.4641 103.444 65.509 104.779C66.3763 105.065 66.9592 105.638 67.2485 106.592L69.5557 115.076C69.9408 116.316 70.9076 117.084 72.0642 117.084H79.9622C81.1184 117.083 82.0796 116.315 82.4646 115.076L84.7778 106.592C85.067 105.639 85.6447 105.066 86.5112 104.779C90.5568 103.444 94.1207 101.44 97.1069 98.8647C97.781 98.2929 98.554 98.006 99.4202 98.291L107.416 100.391C108.475 100.676 109.731 100.103 110.309 99.054L114.16 92.1936C114.738 91.1442 114.643 89.8051 113.776 88.9465L107.611 82.4646C107.033 81.7974 106.838 81.0331 106.934 80.1758C107.126 78.5541 107.227 76.9302 107.227 75.2136V73.114C107.226 71.398 107.126 69.7781 106.934 68.158C106.837 67.2994 107.032 66.5368 107.611 65.8691L113.776 59.3811C114.641 58.5225 114.738 57.1882 114.16 56.1401L110.309 49.2737C109.731 48.2242 108.475 47.6506 107.416 47.937L99.4202 50.0366C98.5537 50.3228 97.7813 50.035 97.1069 49.4629C94.1211 46.8893 90.556 44.8896 86.5112 43.5547C85.6447 43.269 85.0672 42.6949 84.7778 41.7419L82.4646 33.252C82.0794 32.0129 81.1181 31.2503 79.9622 31.25H72.0642ZM76.0132 59.2896C84.4894 59.29 90.3619 65.3912 90.3625 73.6877V74.6399C90.3625 82.9366 84.4899 89.0437 76.0132 89.0442C67.5359 89.0442 61.6577 82.9369 61.6577 74.6399V73.6877C61.6584 65.3909 67.5364 59.2896 76.0132 59.2896ZM181.25 0C191.605 0 200 8.39466 200 18.75V56.25H162.5V0H181.25Z" fill="white"/>
</svg>
