<svg width="1477" height="200" viewBox="0 0 1477 200" fill="none" xmlns="http://www.w3.org/2000/svg">
<path d="M1086.64 187.5V117.5H1106.14L1138.74 160.5H1139.14V117.5H1156.74V187.5H1138.04L1104.64 143.2H1104.24V187.5H1086.64Z" fill="#333333"/>
<path d="M1020.19 189.4C996.186 189.4 980.986 175 980.986 152.5C980.986 130 996.186 115.6 1020.19 115.6C1044.29 115.6 1059.49 130 1059.49 152.5C1059.49 175 1044.29 189.4 1020.19 189.4ZM1020.19 173.4C1033.39 173.4 1041.09 165.6 1041.09 152.5C1041.09 139.4 1033.59 131.6 1020.29 131.6C1007.09 131.6 999.386 139.4 999.386 152.5C999.386 165.6 1006.89 173.4 1020.19 173.4Z" fill="#333333"/>
<path d="M935.281 187.5V117.5H953.581V187.5H935.281Z" fill="#333333"/>
<path d="M866.488 187.5V133.7H841.588L842.288 117.5H909.088L909.688 133.7H884.788V187.5H866.488Z" fill="#333333"/>
<path d="M748.787 187.5L774.587 117.5H803.487L829.187 187.5H810.087L804.487 172H773.287L767.687 187.5H748.787ZM787.087 133.7L778.587 157.3H799.287L790.787 133.7H787.087Z" fill="#333333"/>
<path d="M640.941 187.5V117.5H662.241L682.941 153.6L703.141 117.5H724.541V187.5H706.541V144.1H706.241L683.141 183.5H681.941L659.141 144.1H658.741V187.5H640.941Z" fill="#333333"/>
<path d="M574.483 189.4C550.483 189.4 535.283 175 535.283 152.5C535.283 130 550.483 115.6 574.483 115.6C598.583 115.6 613.783 130 613.783 152.5C613.783 175 598.583 189.4 574.483 189.4ZM574.483 173.4C587.683 173.4 595.383 165.6 595.383 152.5C595.383 139.4 587.883 131.6 574.583 131.6C561.383 131.6 553.683 139.4 553.683 152.5C553.683 165.6 561.183 173.4 574.483 173.4Z" fill="#333333"/>
<path d="M472.836 187.5V133.7H447.936L448.636 117.5H515.436L516.036 133.7H491.136V187.5H472.836Z" fill="#333333"/>
<path d="M388.415 189.4C368.415 189.4 353.915 181.6 353.915 160.3V117.5H372.315V159.1C372.315 169.6 379.915 172.9 388.515 172.9C397.115 172.9 404.815 169.8 404.815 159.5V117.5H423.115V159.9C423.115 181.6 408.315 189.4 388.415 189.4Z" fill="#333333"/>
<path d="M252.4 187.5L278.2 117.5H307.1L332.8 187.5H313.7L308.1 172H276.9L271.3 187.5H252.4ZM290.7 133.7L282.2 157.3H302.9L294.4 133.7H290.7Z" fill="#333333"/>
<path d="M1427.11 87.5003V64.3003L1396.01 17.5002H1417.01L1435.81 46.8003H1436.91L1456.11 17.5002H1476.41L1445.41 64.0003V87.5003H1427.11Z" fill="#333333"/>
<path d="M1349.18 89.1998C1322.68 89.1998 1310.38 72.9998 1310.38 52.7998C1310.38 32.3998 1324.58 15.7998 1350.38 15.7998C1361.98 15.7998 1370.98 19.6998 1376.58 23.6998V41.3998H1376.48C1368.78 36.2998 1361.38 31.8998 1350.98 31.8998C1337.18 31.8998 1328.98 40.4998 1328.98 52.6998C1328.98 64.5998 1336.78 73.0998 1350.88 73.0998C1361.28 73.0998 1368.98 69.3998 1376.48 63.7998H1376.58V81.6998C1371.48 85.1998 1361.78 89.1998 1349.18 89.1998Z" fill="#333333"/>
<path d="M1264.68 87.5003V17.5002H1282.98V87.5003H1264.68Z" fill="#333333"/>
<path d="M1182.15 87.5003V17.5002H1200.45V71.3003H1238.95L1238.25 87.5003H1182.15Z" fill="#333333"/>
<path d="M1115.69 89.3999C1091.69 89.3999 1076.49 74.9999 1076.49 52.4999C1076.49 29.9999 1091.69 15.5999 1115.69 15.5999C1139.79 15.5999 1154.99 29.9999 1154.99 52.4999C1154.99 74.9999 1139.79 89.3999 1115.69 89.3999ZM1115.69 73.3999C1128.89 73.3999 1136.59 65.5999 1136.59 52.4999C1136.59 39.3999 1129.09 31.5999 1115.79 31.5999C1102.59 31.5999 1094.89 39.3999 1094.89 52.4999C1094.89 65.5999 1102.39 73.3999 1115.69 73.3999Z" fill="#333333"/>
<path d="M989.378 87.5003V17.5002H1028.58C1045.58 17.5002 1054.48 27.3002 1054.48 43.2002C1054.48 61.2003 1042.98 69.5003 1027.08 69.5003H1007.68V87.5003H989.378ZM1007.68 54.2003H1026.08C1033.18 54.2003 1036.28 49.7002 1036.28 43.6002C1036.28 36.7002 1032.88 33.0002 1025.78 33.0002H1007.68V54.2003Z" fill="#333333"/>
<path d="M880.233 87.5003V64.3003L849.133 17.5002H870.133L888.933 46.8003H890.033L909.233 17.5002H929.533L898.533 64.0003V87.5003H880.233Z" fill="#333333"/>
<path d="M787.777 87.5003V33.7002H762.877L763.577 17.5002H830.377L830.977 33.7002H806.077V87.5003H787.777Z" fill="#333333"/>
<path d="M718.973 87.5003V17.5002H737.273V87.5003H718.973Z" fill="#333333"/>
<path d="M624.925 87.5003V17.5002H664.025C682.325 17.5002 691.225 26.1002 691.225 42.1002C691.225 53.5003 686.325 61.1003 676.925 64.5003L694.125 87.5003H673.025L659.125 68.0003H643.225V87.5003H624.925ZM643.225 53.0002H662.425C670.125 53.0002 672.825 48.7003 672.825 42.9002C672.825 37.2002 670.125 33.0002 662.425 33.0002H643.225V53.0002Z" fill="#333333"/>
<path d="M559.704 89.4002C539.704 89.4002 525.204 81.6002 525.204 60.3002V17.5002H543.604V59.1002C543.604 69.6002 551.204 72.9002 559.804 72.9002C568.404 72.9002 576.104 69.8003 576.104 59.5003V17.5002H594.404V59.9002C594.404 81.6002 579.604 89.4002 559.704 89.4002Z" fill="#333333"/>
<path d="M470.177 89.1998C443.677 89.1998 431.377 72.9998 431.377 52.7998C431.377 32.3998 445.577 15.7998 471.377 15.7998C482.977 15.7998 491.977 19.6998 497.577 23.6998V41.3998H497.477C489.777 36.2998 482.377 31.8998 471.977 31.8998C458.177 31.8998 449.977 40.4998 449.977 52.6998C449.977 64.5998 457.777 73.0998 471.877 73.0998C482.277 73.0998 489.977 69.3998 497.477 63.7998H497.577V81.6998C492.477 85.1998 482.777 89.1998 470.177 89.1998Z" fill="#333333"/>
<path d="M346.605 87.5003V17.5002H406.405L407.105 33.0002H364.805V44.2002H398.405V58.9003H364.805V72.0003H408.405L407.805 87.5003H346.605Z" fill="#333333"/>
<path d="M289 89.1998C276.3 89.1998 266.4 86.4998 257.2 82.4998V64.8998H257.3C268.2 70.5998 279.8 73.6998 289.6 73.6998C298 73.6998 302.3 71.3998 302.3 67.3998C302.3 63.2998 299.1 62.0998 283.6 59.4998C269.3 57.1998 257 52.7998 257 38.7998C257 26.3998 267.6 15.7998 289.8 15.7998C298.7 15.7998 308.4 17.8998 316.4 21.7998V39.2998H316.3C308.1 34.3998 297.4 31.2998 288.4 31.2998C279.5 31.2998 275.8 33.6998 275.8 37.4998C275.8 42.3998 282.5 42.8998 294.2 44.9998C308.5 47.4998 321 51.4998 321 66.4998C321 76.4998 314.3 89.1998 289 89.1998Z" fill="#333333"/>
<path d="M37.5 143.75V200H18.75C8.39466 200 0 191.605 0 181.25V143.75H37.5ZM150 56.25H125V68.75H200V131.25H175V143.75H200V181.25C200 191.605 191.605 200 181.25 200H50V143.75H75V131.25H0V68.75H25V56.25H0V18.75C0 8.39466 8.39466 0 18.75 0H150V56.25ZM132.855 91.1743L125.775 91.8091C124.739 91.9025 123.937 92.6634 123.694 93.8049L122.321 101.599C122.14 102.477 121.67 103.037 120.917 103.363C117.401 104.887 114.372 106.973 111.908 109.521C111.351 110.089 110.682 110.404 109.882 110.217L102.545 108.984C101.572 108.813 100.493 109.431 100.061 110.419L97.1741 116.882C96.743 117.869 96.9427 119.058 97.7905 119.757L103.845 125.073C104.419 125.625 104.654 126.292 104.639 127.069C104.6 128.537 104.65 129.998 104.791 131.537L104.962 133.417C105.104 134.955 105.328 136.404 105.634 137.842C105.79 138.602 105.675 139.303 105.212 139.948L100.226 146.252C99.5192 147.092 99.5419 148.3 100.146 149.194L104.163 155.035C104.767 155.929 105.94 156.341 106.866 156L113.861 153.473C114.613 153.148 115.328 153.339 115.979 153.796C118.868 155.863 122.228 157.37 125.964 158.24C126.765 158.427 127.33 158.898 127.667 159.729L130.438 167.145C130.886 168.225 131.812 168.831 132.849 168.738L139.929 168.103C140.965 168.009 141.767 167.248 142.01 166.107L143.378 158.313C143.558 157.435 144.034 156.876 144.788 156.549C148.304 155.026 151.332 152.94 153.796 150.391C154.354 149.824 155.023 149.503 155.823 149.689L163.159 150.928C164.132 151.098 165.212 150.48 165.643 149.493L168.53 143.03C168.961 142.043 168.761 140.854 167.914 140.155L161.853 134.839C161.281 134.288 161.044 133.619 161.06 132.843C161.098 131.374 161.054 129.914 160.913 128.375L160.742 126.495C160.601 124.957 160.376 123.513 160.071 122.076C159.914 121.316 160.024 120.615 160.486 119.971L165.479 113.66C166.185 112.82 166.162 111.611 165.558 110.718L161.536 104.877C160.931 103.984 159.763 103.57 158.838 103.912L151.843 106.439C151.091 106.765 150.376 106.573 149.725 106.116C146.837 104.049 143.476 102.542 139.74 101.672C138.939 101.486 138.375 101.015 138.037 100.183L135.266 92.7673C134.819 91.6872 133.892 91.081 132.855 91.1743ZM131.628 116.62C139.225 115.937 144.995 120.933 145.679 128.369L145.758 129.224C146.442 136.66 141.674 142.608 134.076 143.292C126.479 143.976 120.709 138.979 120.026 131.543L119.946 130.688C119.263 123.251 124.03 117.304 131.628 116.62ZM72.0642 31.25C70.9076 31.25 69.9408 32.0121 69.5557 33.252L67.2485 41.7419C66.9591 42.6955 66.376 43.269 65.509 43.5547C61.4645 44.89 57.8989 46.889 54.9133 49.4629C54.2395 50.0345 53.4719 50.3217 52.6062 50.0366L44.6106 47.937C43.5513 47.6507 42.2956 48.2247 41.7175 49.2737L37.8662 56.1401C37.2885 57.1887 37.3844 58.5225 38.2507 59.3811L44.4153 65.8691C44.9935 66.5367 45.1831 67.2996 45.0867 68.158C44.8945 69.7779 44.7999 71.3982 44.7998 73.114V75.2136C44.7998 76.9302 44.8944 78.5541 45.0867 80.1758C45.1827 81.0332 44.9936 81.7973 44.4153 82.4646L38.2507 88.9465C37.3835 89.8051 37.2883 91.1441 37.8662 92.1936L41.7175 99.054C42.2955 100.103 43.551 100.676 44.6106 100.391L52.6062 98.291C53.4707 98.0073 54.2402 98.2943 54.9133 98.8647C57.8991 101.439 61.4641 103.444 65.509 104.779C66.3763 105.065 66.9592 105.638 67.2485 106.592L69.5557 115.076C69.9408 116.316 70.9076 117.084 72.0642 117.084H79.9622C81.1184 117.083 82.0796 116.315 82.4646 115.076L84.7778 106.592C85.067 105.639 85.6447 105.066 86.5112 104.779C90.5568 103.444 94.1207 101.44 97.1069 98.8647C97.781 98.2929 98.554 98.006 99.4202 98.291L107.416 100.391C108.475 100.676 109.731 100.103 110.309 99.054L114.16 92.1936C114.738 91.1442 114.643 89.8051 113.776 88.9465L107.611 82.4646C107.033 81.7974 106.838 81.0331 106.934 80.1758C107.126 78.5541 107.227 76.9302 107.227 75.2136V73.114C107.226 71.398 107.126 69.7781 106.934 68.158C106.837 67.2994 107.032 66.5368 107.611 65.8691L113.776 59.3811C114.641 58.5225 114.738 57.1882 114.16 56.1401L110.309 49.2737C109.731 48.2242 108.475 47.6506 107.416 47.937L99.4202 50.0366C98.5537 50.3228 97.7813 50.035 97.1069 49.4629C94.1211 46.8893 90.556 44.8896 86.5112 43.5547C85.6447 43.269 85.0672 42.6949 84.7778 41.7419L82.4646 33.252C82.0794 32.0129 81.1181 31.2503 79.9622 31.25H72.0642ZM76.0132 59.2896C84.4894 59.29 90.3619 65.3912 90.3625 73.6877V74.6399C90.3625 82.9366 84.4899 89.0437 76.0132 89.0442C67.5359 89.0442 61.6577 82.9369 61.6577 74.6399V73.6877C61.6584 65.3909 67.5364 59.2896 76.0132 59.2896ZM181.25 0C191.605 0 200 8.39466 200 18.75V56.25H162.5V0H181.25Z" fill="#FFCB06"/>
</svg>
